<?xml version="1.0" encoding="utf-8"?>
<!-- Generator: Adobe Illustrator 23.0.0, SVG Export Plug-In . SVG Version: 6.00 Build 0)  -->
<svg version="1.1" id="Capa_1" xmlns="http://www.w3.org/2000/svg" xmlns:xlink="http://www.w3.org/1999/xlink" x="0px" y="0px"
	 viewBox="0 0 481 219" style="enable-background:new 0 0 481 219;" xml:space="preserve">
<style type="text/css">
	.st0{fill:#FFFFFF;}
</style>
<g id="Layer_1">
</g>
<g id="Layer_2">
	<g>
		<g>
			<g>
				<path class="st0" d="M159,177.3c-17.3,0-31.4-14.1-31.4-31.4s14.1-31.4,31.4-31.4s31.4,14.1,31.4,31.4
					C190.4,163.2,176.3,177.3,159,177.3z M159,126c-11,0-19.9,8.9-19.9,19.9s8.9,19.9,19.9,19.9s19.9-8.9,19.9-19.9
					C178.8,134.9,169.9,126,159,126z"/>
			</g>
			<g>
				<path class="st0" d="M303,177.3c-17.3,0-31.4-14.1-31.4-31.4s14.1-31.4,31.4-31.4s31.4,14.1,31.4,31.4
					C334.5,163.2,320.3,177.3,303,177.3z M303,126c-11,0-19.9,8.9-19.9,19.9s8.9,19.9,19.9,19.9s19.9-8.9,19.9-19.9
					C322.9,134.9,314,126,303,126z"/>
			</g>
			<g>
				<path class="st0" d="M328.7,177.3c-3.2,0-5.8-2.6-5.8-5.8V94.5c0-3.2,2.6-5.8,5.8-5.8s5.8,2.6,5.8,5.8v76.9
					C334.5,174.7,331.9,177.3,328.7,177.3z"/>
			</g>
			<g>
				<g>
					<path class="st0" d="M421.8,177.3c-3.2,0-5.8-2.6-5.8-5.8V94.5c0-3.2,2.6-5.8,5.8-5.8s5.8,2.6,5.8,5.8v76.9
						C427.5,174.7,425,177.3,421.8,177.3z"/>
				</g>
			</g>
			<g>
				<path class="st0" d="M259.5,177.3c-3.2,0-5.8-2.6-5.8-5.8v-25.7c0-11-8.9-19.9-19.9-19.9c-11,0-19.9,8.9-19.9,19.9v25.7
					c0,3.2-2.6,5.8-5.8,5.8s-5.8-2.6-5.8-5.8v-25.7c0-17.3,14.1-31.4,31.4-31.4s31.4,14.1,31.4,31.4v25.7
					C265.3,174.7,262.7,177.3,259.5,177.3z"/>
			</g>
			<g>
				<path class="st0" d="M392.3,177.3h-17.8c-8.4,0-16.3-3.3-22.2-9.2c-6-6-9.1-13.9-9.2-21.8c0-0.2,0-0.3,0-0.5c0-0.2,0-0.3,0-0.5
					c0.1-7.9,3.2-15.8,9.2-21.8c12.3-12.3,32.2-12.3,44.5,0c5.9,5.9,9.2,13.8,9.2,22.2c0,3.2-2.6,5.8-5.8,5.8h-44.6
					c0.9,3,2.6,5.9,5,8.3c3.8,3.8,8.7,5.8,14,5.8h17.8c3.2,0,5.8,2.6,5.8,5.8C398,174.7,395.5,177.3,392.3,177.3z M355.4,140h38
					c-0.9-3.1-2.6-5.9-5-8.3c-7.7-7.7-20.3-7.7-28.1,0C358,134.2,356.3,137,355.4,140z"/>
			</g>
			<g>
				<path class="st0" d="M184.6,177.3c-3.2,0-5.8-2.6-5.8-5.8v-25.7c0-3.2,2.6-5.8,5.8-5.8s5.8,2.6,5.8,5.8v25.7
					C190.4,174.7,187.8,177.3,184.6,177.3z"/>
			</g>
			<g>
				<path class="st0" d="M208.2,151.6c-3.2,0-5.8-2.6-5.8-5.8v-25.6c0-3.2,2.6-5.8,5.8-5.8s5.8,2.6,5.8,5.8v25.6
					C214,149,211.4,151.6,208.2,151.6z"/>
			</g>
			<g>
				<path class="st0" d="M112.4,177.3c-3.2,0-5.8-2.6-5.8-5.8v-28.9c0-2-1.5-3.7-3.3-3.7H70.2c-1.8,0-3.3,1.7-3.3,3.7v28.9
					c0,3.2-2.6,5.8-5.8,5.8s-5.8-2.6-5.8-5.8v-28.9c0-8.4,6.7-15.3,14.9-15.3h33.2c8.2,0,14.9,6.8,14.9,15.3v28.9
					C118.2,174.7,115.6,177.3,112.4,177.3z"/>
			</g>
			<g>
				<path class="st0" d="M103.4,138.9H70.2c-8.2,0-14.9-6.8-14.9-15.3V94.7c0-3.2,2.6-5.8,5.8-5.8s5.8,2.6,5.8,5.8v28.9
					c0,2,1.5,3.7,3.3,3.7h33.2c1.8,0,3.3-1.7,3.3-3.7V94.7c0-3.2,2.6-5.8,5.8-5.8s5.8,2.6,5.8,5.8v28.9
					C118.2,132,111.6,138.9,103.4,138.9z"/>
			</g>
		</g>
		<g>
			<g>
				<path class="st0" d="M279.5,75.2c-3.2,0-5.8-2.6-5.8-5.8V50.9c0-18-14.7-32.7-32.7-32.7c-18,0-32.7,14.7-32.7,32.7v18.5
					c0,3.2-2.6,5.8-5.8,5.8s-5.8-2.6-5.8-5.8V50.9c0-24.4,19.9-44.3,44.3-44.3c24.4,0,44.3,19.9,44.3,44.3v18.5
					C285.3,72.6,282.7,75.2,279.5,75.2z"/>
			</g>
			<g>
				<path class="st0" d="M461,215.4H21c-4.5,0-8.8-1.9-11.8-5.2c-3-3.3-4.6-7.8-4.2-12.2L16.1,64.7c0.3-4,2.2-7.8,5.1-10.5
					c3-2.7,6.9-4.3,10.9-4.3h417.7c4,0,7.9,1.5,10.9,4.3c3,2.7,4.8,6.5,5.1,10.5L477,198c0.4,4.5-1.2,8.9-4.2,12.2
					C469.8,213.5,465.5,215.4,461,215.4z M32.1,61.5c-2.3,0-4.3,1.8-4.5,4.1L16.6,198.9c-0.1,1.3,0.3,2.5,1.2,3.4s2,1.5,3.3,1.5H461
					c1.3,0,2.5-0.5,3.3-1.5c0.9-0.9,1.3-2.2,1.2-3.4L454.4,65.6c-0.2-2.3-2.2-4.1-4.5-4.1L32.1,61.5L32.1,61.5z"/>
			</g>
			<g>
				<path class="st0" d="M112.4,177.3c-3.2,0-5.8-2.6-5.8-5.8v-28.9c0-2-1.5-3.7-3.3-3.7H70.2c-1.8,0-3.3,1.7-3.3,3.7v28.9
					c0,3.2-2.6,5.8-5.8,5.8s-5.8-2.6-5.8-5.8v-28.9c0-8.4,6.7-15.3,14.9-15.3h33.2c8.2,0,14.9,6.8,14.9,15.3v28.9
					C118.2,174.7,115.6,177.3,112.4,177.3z"/>
			</g>
			<g>
				<path class="st0" d="M103.4,138.9H70.2c-8.2,0-14.9-6.8-14.9-15.3V94.7c0-3.2,2.6-5.8,5.8-5.8s5.8,2.6,5.8,5.8v28.9
					c0,2,1.5,3.7,3.3,3.7h33.2c1.8,0,3.3-1.7,3.3-3.7V94.7c0-3.2,2.6-5.8,5.8-5.8s5.8,2.6,5.8,5.8v28.9
					C118.2,132,111.6,138.9,103.4,138.9z"/>
			</g>
		</g>
	</g>
</g>
<g id="Layer_3">
</g>
</svg>
