<svg xmlns="http://www.w3.org/2000/svg" x="0px" y="0px"
	 viewBox="32 0 1140 382.95">
   <style type="text/css">
	path{fill:#261f27;}
</style>
<g>
	<path d="M456.78,306.24c0-5.65-1.68-10.23-5-13.61c-3.27-3.3-7.9-4.95-13.8-4.95H349.9v-80.43h70.81c3.01,0,5.87-1.76,5.87-5.31
		v-16.47h-2.89H349.9V117h83.89c5.96,0,10.47-1.72,13.39-5.04c2.92-3.36,4.4-7.93,4.4-13.52c0-0.81-0.32-3.38-0.32-3.38
		c0-1.76-1.3-3.2-2.89-3.2H327.88c-1.59,0-2.89,1.44-2.89,3.2v214.51c0,1.81,1.3,3.27,2.89,3.27h125.69
		C457.36,312.84,456.78,307.09,456.78,306.24"/>
	<path d="M598.32,92.06H758.2v12.08c0,14.75-15.74,14.62-15.74,14.62h-51.87v193.87h-24.36V118.76h-67.92L598.32,92.06L598.32,92.06
		z"/>
	<path d="M1048.9,133.89c2.78-12.73,7.75-22.93,14.9-30.63c7.14-7.69,16.92-11.4,29.3-11.19h19.24l57.82,220.56h-26.67l-11.14-43.81
		h-90.8l-10.99,43.81h-28.9L1048.9,133.89z M1048,243.22h78.02l-31.96-125.92c-5.55,0-10.04,2.43-13.45,7.22
		c-3.41,4.8-5.99,10.71-7.67,17.68L1048,243.22z"/>
	<path d="M61.43,242.49l0.32,70.42H36.93L36.61,91.77h68.7c21.87,0,38.1,6,48.68,18.01c10.56,11.99,15.85,30.32,15.85,54.95
		c0,24.67-5.29,43.76-15.85,57.34c-10.59,13.62-26.82,20.41-48.68,20.41L61.43,242.49L61.43,242.49z M108.32,217.33
		c13.51,0,23.37-4.6,29.62-13.9c6.25-9.1,9.4-21.77,9.4-37.66c0-15.93-3.15-27.66-9.4-35.2c-6.25-7.51-16.11-11.28-29.62-12.97
		H61.43v99.73L108.32,217.33L108.32,217.33z"/>
	<path d="M289.64,230.37c3.01-2.42,5.76-5.16,8.19-8.29c10.59-13.58,15.85-32.67,15.85-57.34c0-24.62-5.26-42.96-15.85-54.95
		c-10.56-12.01-26.79-18.01-48.66-18.01h-68.7l0.29,221.14h24.82l-0.29-70.42h43.88c1.71,0,3.36-0.07,5-0.16
		c9.55,0.9,35.81,6.45,35.81,39.82v30.77h23.69v-30.77C313.68,254.82,301.9,239.2,289.64,230.37z M205.28,217.33v-99.71h46.89
		c13.48,1.68,23.37,5.45,29.62,12.96c6.25,7.54,9.37,19.27,9.37,35.2c0,15.89-3.12,28.56-9.37,37.66
		c-6.25,9.3-16.14,13.9-29.62,13.9L205.28,217.33L205.28,217.33L205.28,217.33z"/>
	<path d="M791.3,105.41c0-13.88-12.01-13.35-12.01-13.35h-12.67l0.03,38.86h-0.03v168.31c0,13.93,11.98,13.39,11.98,13.39h12.7
		l-0.06-38.86h0.06V105.41z"/>
	<path d="M991.68,105.41c0-13.88-12.01-13.35-12.01-13.35H967l0.06,38.86H967v168.31c0,13.93,11.98,13.39,11.98,13.39h12.7
		l-0.06-38.86h0.06V105.41L991.68,105.41z"/>
	<path d="M950.63,207.09v-0.07h-61.9c-12.32,0-11.86,13.49-11.86,13.49v11.08h52.01c-0.23,3.24-0.49-4.35-0.78-1.55
		c-1.1,10.18-4.11,29.72-7.46,36.32c-3.44,6.63-8.88,12.71-14.96,15.81c-2.26,1.17-4.83,2.07-7.69,2.72
		c-2.43,0.25-4.86,0.49-7.35,0.74c-4.95,0.48-9.28,0.72-13.05,0.78c-1.5-0.03-3.3-0.04-5.24-0.06c-8.19-0.29-15.1-1.48-20.33-4.18
		c-6.08-3.1-11.51-9.18-14.93-15.81c-3.38-6.6-6.39-15.45-7.46-25.64c-1.13-10.21-1.68-23.75-1.68-37.98
		c0-14.45,0.61-28.12,1.79-38.57c1.19-10.41,4.22-20.19,7.64-26.66c3.38-6.53,8.79-11.32,14.75-14.4
		c5.96-3.13,14.09-4.67,23.66-4.67c4.37,0,9.4,0.33,15.1,0.91c2.11,0.23,4.14,0.46,6.16,0.69c3.18,0.75,6.05,1.77,8.5,3.07
		c5.96,3.08,11.4,7.87,14.75,14.4c3.41,6.47,6.48,16.26,7.67,26.66c0.06,0.61,0.58,5.56,0.72,11.83l26.12,0.1
		c-0.49-8.08-1.27-15.57-2.32-22.49c-2.08-13.94-5.87-25.47-11.28-34.68c-5.41-9.15-12.7-16.03-21.72-20.6
		c-9.08-4.51-26.5-6.79-41.94-6.79c-15.16,0-30.29,2.28-39.37,6.79c-9.05,4.57-16.29,11.44-21.7,20.6
		c-5.44,9.21-9.2,20.75-11.31,34.68c-2.08,13.97-3.13,30.33-3.13,49.13c0,17.95,0.93,33.9,2.86,47.7
		c1.94,13.84,5.47,25.41,10.76,34.67c5.21,9.31,12.38,16.32,21.55,21.09c0.32,0.16,0.64,0.32,0.98,0.46
		c9.32,4.31,26.61,6.42,40.01,6.51c0.29,0,0.49,0,0.64,0c0.12,0,0.32,0,0.61,0c13.39-0.09,30.72-2.2,40.01-6.51
		c0.35-0.14,0.67-0.3,0.98-0.46c9.17-4.77,16.34-11.77,21.58-21.07c5.27-9.27,8.82-20.84,10.73-34.68
		c1.91-13.51,2.83-25.86,2.86-43.35L950.63,207.09L950.63,207.09L950.63,207.09z"/>
	<path d="M592.07,216.2c-2.52-3.91-5.58-7.19-9.17-9.89c-3.59-2.63-7.55-5.34-11.83-7.26c-13.62-4.28-29.97-7.19-29.97-7.19
		l-28-3.43c-11.05-1.29-19.06-4.43-24.01-10.75c-4.95-6.27-8.97-15.09-8.97-27.21c0-11.74,4.25-20.04,9.66-25.06
		c5.47-4.96,13.71-7.48,24.79-8.32h0.55h20.42h0.55c11.08,0.84,19.32,3.36,24.76,8.32c3.88,3.54,7.09,8.75,8.65,15.63h25.08
		c-0.95-16.54-6.1-28.62-15.48-36.33c-10.47-8.59-24.88-12.92-43.13-12.92h-0.43h-20.42h-0.41c-18.28,0-32.69,4.33-43.19,12.92
		c-10.41,8.61-15.65,22.62-15.65,42.23c0,7.41,0.55,13.83,1.53,19.45c1.04,5.45,2.66,10.25,4.57,14.41
		c4.4,9.55,9.4,16.27,22.51,23.71c14.58,8.28,43.16,9.21,53.63,10.52c10.53,1.29,20.39,4.74,23.92,7.13
		c3.47,2.45,6.39,5.87,8.74,10.36c2.34,4.48,4.97,10.46,4.97,17.86c0,13.77-4.6,23.39-10.79,28.71c-6.25,5.34-14.87,8.01-25.95,8.87
		h-3.47h-20.42h-3.47c-11.08-0.85-19.7-3.53-25.92-8.87c-1.74-1.45-3.3-3.28-4.71-5.4h-28.03c0.52,2.04,1.1,4.01,1.74,5.87
		c2.86,7.93,6.94,14.36,12.32,19.24c5.41,4.95,11.83,8.48,19.41,10.7c7.52,2.21,15.91,3.37,25.14,3.37h3.53h20.42h3.53
		c9.23,0,17.65-1.16,25.14-3.37c7.58-2.23,14.03-5.76,19.41-10.7c5.35-4.87,9.46-11.31,12.29-19.24c2.81-7.97,4.22-17.56,4.22-28.8
		c0-7.9-0.69-14.64-2.11-20.28C596.59,224.93,594.65,220.1,592.07,216.2z"/>
</g>
</svg>
