<?xml version="1.0" encoding="utf-8"?>
<!-- Generator: Adobe Illustrator 24.0.0, SVG Export Plug-In . SVG Version: 6.00 Build 0)  -->
<svg version="1.1" id="Capa_1" xmlns="http://www.w3.org/2000/svg" xmlns:xlink="http://www.w3.org/1999/xlink" x="0px" y="0px"
	 viewBox="0 0 1190.3 383" style="enable-background:new 0 0 1190.3 383;" xml:space="preserve">
<style type="text/css">
	.st0{fill:#FFFFFF;}
</style>
<g>
	<path class="st0" d="M322.6,155.1c-29.9,0-54.3,24.4-54.3,54.3c0,29.9,24.4,54.3,54.3,54.3c29.9,0,54.3-24.4,54.3-54.3
		C376.9,179.4,352.6,155.1,322.6,155.1 M322.6,233.3c-13.2,0-23.9-10.7-23.9-23.9c0-13.2,10.7-23.9,23.9-23.9
		c13.2,0,23.9,10.7,23.9,23.9C346.6,222.6,335.8,233.3,322.6,233.3"/>
</g>
<polygon class="st0" points="398.8,125.6 398.8,157.7 384,157.7 384,187 398.8,187 398.8,261.1 431.3,261.1 431.3,187 446.1,187 
	446.1,157.7 431.3,157.7 431.3,125.6 "/>
<rect x="461" y="157.7" class="st0" width="32.4" height="103.4"/>
<g>
	<path class="st0" d="M477.2,107.5c-10,0-18.1,8.1-18.1,18.1c0,10,8.1,18.1,18.1,18.1c10,0,18.1-8.1,18.1-18.1
		C495.3,115.6,487.2,107.5,477.2,107.5"/>
	<path class="st0" d="M942.7,185.5c10.7,0,19.3,8.7,19.3,19.3v56.2h32.5v-60.7c0-27.5-15.9-45.3-41-45.3c-10.3,0-21.2,4.5-30.2,19
		v-16.4h-32.5v103.4h32.5v-56.2C923.3,194.2,932,185.5,942.7,185.5"/>
</g>
<polygon class="st0" points="1009.8,110.1 1009.8,261.1 1042.2,261.1 1042.2,218.5 1074.9,261.1 1112.7,261.1 1072.9,209.4 
	1109.9,157.7 1072,157.7 1042.2,199.5 1042.2,110.1 "/>
<g>
	<path class="st0" d="M156.6,233.3c2.3-5.6,3.3-11.3,3.3-19.1c0-10.4-3.3-19.8-9.2-26.3c-6.9-7.6-18.8-13.9-35.2-18.7
		c-3.6-1.1-6.6-2.2-9.2-3.5c-2.9-1.4-5-3.1-6.9-5.1c-2.1-2.3-3-5-3-8.4c0-4.8,2.6-8.1,6.8-10.7c5.2-3.3,15.3-3.6,25.7,0.2
		c3.6,1.3,6.8,2.8,10.5,5l13.8-27.4c-5.1-3.1-12.4-7.1-19.8-8.9c-7.5-1.9-14.5-2.8-22-2.8c-7.6,0-14.5,1.1-20.6,3.4
		c-5.4,2-11,5.6-15.8,10.3c-4.3,4.2-8.2,10.2-10.5,15.7C62.2,142.6,61,149,61,156c0,7.3,3.5,19.2,12.2,27.4
		c9.5,8.9,20.2,12,24.5,13.7c4.3,1.7,9.1,3.1,12.1,4.3c3.2,1.3,6.8,3,8.9,4.5c2.2,1.7,3.7,3.2,4.7,5.3c1,2.1,1.2,3.9,1,6.6
		c-0.3,3.4-1.8,6.3-4.6,8.9c-2.8,2.6-7.8,4.1-14.9,4.1c-6,0-12-1.7-18.1-4.4c-5.3-2.4-9-4.4-14.7-7.8l-16.2,28.3
		c11.3,10.1,29.7,16.8,46,16.8c8.3,0,17-1.4,24.5-3.9c7-2.4,13.9-6.2,18.5-10.4C149.8,245,154.3,238.8,156.6,233.3"/>
	<path class="st0" d="M1135.6,224.9c-10,0-18.1,8.1-18.1,18.1c0,10,8.1,18.1,18.1,18.1c10,0,18.1-8.1,18.1-18.1
		C1153.7,233,1145.6,224.9,1135.6,224.9 M1135.6,257.4c-8,0-14.4-6.5-14.4-14.4c0-8,6.5-14.4,14.4-14.4c8,0,14.4,6.5,14.4,14.4
		C1150,251,1143.6,257.4,1135.6,257.4"/>
	<path class="st0" d="M1135.6,246h-2.9v6.9h-3.6v-19.7h7.6c3.6,0,6.6,2.9,6.6,6.5c0,2.5-1.5,4.7-3.8,5.8l4.2,7.4h-4.3L1135.6,246z
		 M1132.7,242.7h4.2c1.5,0,2.8-1.3,2.8-3c0-1.7-1.3-3-2.8-3h-4.2V242.7z"/>
	<path class="st0" d="M245.5,224.4c-4.4,5.4-11.1,8.9-18.6,8.9c-13.2,0-23.9-10.7-23.9-23.9s10.7-23.9,23.9-23.9
		c7.5,0,14.3,3.5,18.6,8.9l21.5-21.5c-9.9-10.9-24.3-17.8-40.2-17.8c-29.9,0-56,21.3-56,54.3s26.1,54.3,56,54.3
		c15.9,0,30.2-6.9,40.2-17.8L245.5,224.4z"/>
	<path class="st0" d="M620.4,261.1V157.7h-31.6v10.9l-2.9-2.6c-7.9-7.1-16.8-10.8-27.3-10.8c-27.9,0-51.5,24.9-51.5,54.3
		c0,29.4,23.6,54.3,51.5,54.3c10.4,0,19.3-3.7,27.3-10.8l2.9-2.6v10.9H620.4z M563.6,233.8c-13.5,0-24.4-11-24.4-24.4
		c0-13.5,11-24.4,24.4-24.4c13.5,0,24.4,11,24.4,24.4C588.1,222.8,577.1,233.8,563.6,233.8"/>
	<path class="st0" d="M875.3,261.1V157.7h-31.6v10.9l-2.9-2.6c-7.9-7.1-16.8-10.8-27.3-10.8c-27.9,0-51.5,24.9-51.5,54.3
		c0,29.4,23.6,54.3,51.5,54.3c10.5,0,19.3-3.7,27.3-10.8l2.9-2.6v10.9H875.3z M818.6,233.8c-13.5,0-24.4-11-24.4-24.4
		c0-13.5,11-24.4,24.4-24.4c13.5,0,24.4,11,24.4,24.4C843,222.8,832,233.8,818.6,233.8"/>
	<path class="st0" d="M668.8,261.1v-10.9l2.9,2.6c7.9,7.1,16.8,10.8,27.3,10.8c27.9,0,51.5-24.9,51.5-54.3
		c0-29.4-23.6-54.3-51.5-54.3c-10.4,0-19.3,3.7-27.3,10.8l-2.9,2.6v-58.4h-31.6v151H668.8z M669.5,209.4c0-13.5,11-24.4,24.4-24.4
		c13.5,0,24.4,11,24.4,24.4s-11,24.4-24.4,24.4C680.5,233.8,669.5,222.8,669.5,209.4"/>
</g>
</svg>
