<svg xmlns="http://www.w3.org/2000/svg" width="auto" height="24" x="0px" y="0px"
	 viewBox="0 120 1190.33 190">
<style type="text/css">
	.st0{fill-rule:evenodd;clip-rule:evenodd;fill:#FFFFFF;}
	.st1{fill:#FFFFFF;}
</style>
<g>
	<g>
		<path class="st0" d="M144.88,125.11h57.54L202.33,205C191.62,173.53,170.96,146.47,144.88,125.11z"/>
		<path class="st0" d="M57.35,162.77c12.03-5.7,25.4-11,38.83-14.16c-8.51-6.97-20.27-14.38-30.68-19.47
			c10.65,4.41,24.38,11.25,35.55,18.24c13.58-3.28,28.34-4.87,43.15-3.88c-9.88,0.6-27.98,3.25-38.3,6.91
			c12.79,9.18,24.37,20.13,33.76,31.96c9.67-4.33,19.69-7.42,31.58-10.45c-5.45,2.15-20.94,9.2-28.99,13.73
			c10.23,14.69,17.48,29.98,20.88,46.83c12.65-10.18,21.65-22.68,25.44-27.47c-6.81,11.79-15.45,22.43-24.4,31.62
			c1.02,5.54,1.61,10.96,1.78,16.4l34.1,0.06c-3.75-60.15-32.25-100.33-74.66-127.92l-68.05,0.01V162.77z"/>
		<path class="st0" d="M57.35,169.34c13.81-7.32,28.16-12.94,42.91-17.44c12.9,10.2,24.05,21.84,32.83,33.41
			c-14.99,6.47-29.76,13.85-42.91,22.42c-9.82-12.48-19.72-23.68-32.83-34.2V169.34z"/>
		<path class="st0" d="M94.49,213.05c13.47-8.5,27.51-16.76,41.4-24.09c10.24,14.3,18.57,29.96,23.25,47.23
			c-6.51,5.52-14.23,11.26-22.44,16.79h-18.21C112.17,239.21,104.13,226.11,94.49,213.05z"/>
		<path class="st0" d="M57.43,237.51c11.12-7.4,20.68-14.2,31.16-20.83c8.61,11.65,16.58,23.7,23.22,36.3H57.43
			C57.43,247.96,57.43,242.51,57.43,237.51z"/>
		<path class="st0" d="M57.32,179.79c9.8,10.04,19.03,20.62,27.29,31.25c-6.75,4.4-15.82,10.33-27.29,18.7V179.79z"/>
		<path class="st0" d="M146.43,252.98c4.94-4,9.68-8.04,13.95-12.29c1.11,4.08,1.95,8.03,2.47,12.29H146.43z"/>
	</g>
	<g>
		<path class="st1" d="M326.97,243.59l-0.1-15.02c-6.49,5.67-13.23,9.94-20.2,12.81c-6.98,2.87-14.13,4.3-21.46,4.3
			c-12.46,0-21.79-3.29-27.99-9.88c-6.2-6.59-9.3-16.48-9.3-29.66v-40.3c0-6.29-1.19-10.82-3.55-13.6
			c-2.37-2.78-6.21-4.22-11.54-4.34v-2.34c2.66,0.06,5.55,0.08,8.67,0.08s7.79,0,14.02,0c6.23,0,10.91,0,14.02,0
			c3.12,0,6-0.05,8.67-0.17v2.42c-5.32,0.11-9.17,1.56-11.54,4.34c-2.37,2.78-3.55,7.31-3.55,13.6v42.89
			c0,9.95,2.47,17.55,7.41,22.77c4.94,5.23,12.12,7.85,21.55,7.85c6.11,0,12.09-1.39,17.94-4.17c5.85-2.78,11.5-6.93,16.97-12.44
			v-56.9c0-6.29-1.2-10.82-3.58-13.6c-2.39-2.78-6.26-4.22-11.61-4.34v-2.34c2.66,0.06,5.55,0.08,8.66,0.08c3.12,0,7.79,0,14.02,0
			c6.16,0,10.79,0,13.87,0c3.08,0,5.96-0.05,8.62-0.17v2.42c-5.32,0.11-9.14,1.54-11.44,4.3c-2.3,2.75-3.46,7.3-3.46,13.64v56.4
			c0,7.68,1.04,12.71,3.12,15.1c2.08,2.39,6,3.67,11.78,3.84v2.42c-3.7-0.11-6.62-0.19-8.76-0.25c-2.14-0.05-4.12-0.08-5.94-0.08
			c-1.82,0-3.75,0.01-5.79,0.04C334.42,243.33,331.25,243.43,326.97,243.59z"/>
		<path class="st1" d="M376.12,243.59v-2c4.78-0.14,8.13-1.36,10.06-3.65c1.93-2.3,2.9-6.3,2.9-12v-45.3
			c0-5.97-0.94-10.11-2.81-12.41c-1.88-2.3-5.26-3.54-10.14-3.72v-1.93c1.45,0.05,3.02,0.07,4.71,0.07c1.69,0,4.17,0,7.44,0
			c3.38,0,5.86,0,7.44,0c1.58,0,3.07-0.02,4.46-0.07l60.42,63.64v-47.99c0-4.92-0.84-8.38-2.54-10.38c-1.69-2-4.62-3.11-8.81-3.34
			v-1.93c1.61,0.05,3.33,0.07,5.15,0.07s4.56,0,8.21,0c3.7,0,6.47,0,8.33,0c1.85,0,3.58-0.02,5.19-0.07v1.93
			c-4.19,0.32-7.09,1.46-8.73,3.41c-1.64,1.95-2.45,5.34-2.45,10.17v66.19h-2.5l-69.02-72.88v54.26c0,5.93,0.98,10.07,2.94,12.41
			c1.96,2.34,5.32,3.52,10.09,3.52h0.48l-0.08,2c-4.08-0.14-7.14-0.21-9.21-0.24c-2.07-0.03-4.04-0.04-5.91-0.04
			c-3.22,0-8.12,0.09-14.72,0.28H376.12z"/>
		<path class="st1" d="M530.13,162.58v1.93c-4.46,0.09-7.66,1.29-9.62,3.58c-1.96,2.3-2.93,6.05-2.93,11.24v47.44
			c0,5.19,0.99,8.95,2.97,11.27c1.98,2.32,5.17,3.53,9.58,3.62l-0.08,1.93c-5.26-0.14-9.19-0.21-11.79-0.24
			c-2.6-0.03-5.03-0.04-7.28-0.04c-2.2,0-4.57,0.01-7.12,0.04c-2.55,0.03-6.42,0.1-11.63,0.24v-1.93c4.4-0.09,7.59-1.3,9.57-3.62
			c1.99-2.32,2.98-6.08,2.98-11.27v-47.44c0-5.19-0.98-8.94-2.93-11.24c-1.96-2.3-5.16-3.49-9.62-3.58v-1.93
			c2.2,0.05,4.59,0.07,7.16,0.07c2.57,0,6.43,0,11.58,0c5.2,0,9.12,0,11.74,0C525.35,162.65,527.82,162.63,530.13,162.58z"/>
		<path class="st1" d="M543.35,243.59v-2c4.45-0.09,7.89-1.42,10.3-3.96c2.41-2.55,3.92-6.45,4.5-11.69l6.27-54.67
			c-1.98-2.3-4.07-4-6.27-5.1c-2.2-1.1-4.61-1.66-7.24-1.66h-1.05v-1.93c1.66,0.05,3.4,0.07,5.2,0.07c1.79,0,4.41,0,7.84,0
			c3.32,0,5.75,0,7.28,0c1.53,0,2.96-0.02,4.3-0.07l31.29,65.64l31.62-65.64c1.07,0.05,2.25,0.07,3.54,0.07c1.29,0,3.35,0,6.2,0
			c3.12,0,5.51,0,7.2,0c1.69,0,3.29-0.02,4.79-0.07v1.93c-3.8,0.14-6.59,1.09-8.37,2.86c-1.76,1.77-2.65,4.54-2.65,8.31
			c0,0.69,0.01,1.22,0.04,1.59c0.02,0.37,0.06,0.71,0.12,1.03l4.42,48.47c0.54,5.51,1.78,9.32,3.74,11.41
			c1.96,2.09,5.21,3.23,9.77,3.41v2c-4.56-0.09-8.11-0.16-10.66-0.2c-2.55-0.05-4.98-0.07-7.29-0.07c-3.97,0-10.16,0.09-18.58,0.28
			h-0.48v-2c4.02-0.28,6.89-1.31,8.61-3.11c1.72-1.79,2.58-4.76,2.58-8.89c0-1.06-0.01-1.87-0.04-2.41
			c-0.03-0.55-0.07-1.11-0.13-1.66l-4.5-50.95l-32.74,68.33h-2.82l-32.58-67.63l-4.83,46.33c0,0.04,0,0.16,0,0.34
			c-0.21,2.21-0.32,3.82-0.32,4.83c0,5.01,1.03,8.73,3.1,11.17c2.07,2.43,5.22,3.65,9.45,3.65h1.45v2
			c-4.61-0.14-8.05-0.21-10.33-0.24c-2.29-0.03-4.44-0.04-6.48-0.04c-1.93,0-4,0.01-6.2,0.04
			C551.21,243.38,547.86,243.45,543.35,243.59z"/>
		<path class="st1" d="M754.24,243.59l-0.08-12.41c-5.36,4.69-10.92,8.22-16.7,10.58c-5.76,2.37-11.67,3.55-17.74,3.55
			c-10.29,0-18.01-2.73-23.13-8.17c-5.12-5.45-7.69-13.62-7.69-24.51v-33.3c0-5.19-0.98-8.94-2.93-11.24
			c-1.96-2.3-5.14-3.49-9.54-3.58v-1.93c2.2,0.05,4.59,0.07,7.17,0.07c2.57,0,6.43,0,11.58,0c5.14,0,9.01,0,11.59,0
			c2.57,0,4.96-0.04,7.16-0.14v2c-4.4,0.09-7.57,1.29-9.53,3.58c-1.96,2.3-2.94,6.05-2.94,11.24v35.44c0,8.22,2.04,14.5,6.12,18.82
			c4.08,4.32,10.02,6.48,17.81,6.48c5.04,0,9.99-1.15,14.83-3.45c4.83-2.3,9.5-5.72,14.01-10.27v-47.02c0-5.19-0.99-8.94-2.96-11.24
			c-1.97-2.3-5.16-3.49-9.59-3.58v-1.93c2.2,0.05,4.59,0.07,7.16,0.07c2.58,0,6.44,0,11.59,0c5.09,0,8.91,0,11.46,0
			c2.55,0,4.92-0.04,7.13-0.14v2c-4.4,0.09-7.55,1.28-9.46,3.55c-1.9,2.27-2.85,6.03-2.85,11.27v46.61c0,6.34,0.86,10.5,2.58,12.48
			c1.71,1.98,4.96,3.04,9.74,3.17v2c-3.06-0.09-5.47-0.16-7.24-0.2c-1.78-0.05-3.41-0.07-4.91-0.07c-1.5,0-3.09,0.01-4.78,0.04
			C760.39,243.38,757.78,243.45,754.24,243.59z"/>
		<path class="st1" d="M795.86,243.59v-2c4.77-0.14,8.13-1.36,10.06-3.65c1.93-2.3,2.89-6.3,2.89-12v-45.3
			c0-5.97-0.94-10.11-2.81-12.41c-1.88-2.3-5.26-3.54-10.14-3.72v-1.93c1.45,0.05,3.02,0.07,4.71,0.07c1.68,0,4.17,0,7.44,0
			c3.38,0,5.86,0,7.44,0s3.08-0.02,4.47-0.07l60.41,63.64v-47.99c0-4.92-0.84-8.38-2.53-10.38c-1.7-2-4.63-3.11-8.81-3.34v-1.93
			c1.6,0.05,3.33,0.07,5.14,0.07c1.82,0,4.56,0,8.21,0c3.7,0,6.48,0,8.32,0c1.85,0,3.59-0.02,5.2-0.07v1.93
			c-4.18,0.32-7.09,1.46-8.74,3.41c-1.63,1.95-2.45,5.34-2.45,10.17v66.19h-2.49l-69.03-72.88v54.26c0,5.93,0.98,10.07,2.94,12.41
			c1.95,2.34,5.32,3.52,10.09,3.52h0.48l-0.08,2c-4.08-0.14-7.15-0.21-9.21-0.24c-2.07-0.03-4.04-0.04-5.91-0.04
			c-3.22,0-8.13,0.09-14.73,0.28H795.86z"/>
		<path class="st1" d="M912.78,243.59v-1.93c4.4-0.09,7.58-1.3,9.57-3.62c1.99-2.32,2.98-6.08,2.98-11.27v-47.44
			c0-5.19-0.98-8.94-2.94-11.24c-1.96-2.3-5.13-3.49-9.53-3.58l-0.08-2h42.15c17.75,0,31.77,3.79,42.07,11.38
			c10.3,7.58,15.45,17.83,15.45,30.75c0,11.91-4.79,21.37-14.36,28.4c-9.58,7.04-22.52,10.55-38.81,10.55H912.78z M937.8,166.51
			v59.02c0,5.75,1.27,9.65,3.81,11.72c2.56,2.07,7.23,3.1,14.04,3.1c13.79,0,24.37-3.09,31.75-9.27
			c7.37-6.18,11.06-15.04,11.06-26.58c0-12.41-4.09-21.98-12.28-28.72c-8.17-6.73-19.75-10.1-34.7-10.1c-1.93,0-4.03,0.07-6.28,0.21
			C942.94,166.03,940.47,166.23,937.8,166.51z"/>
		<path class="st1" d="M1031.82,203.05c0-7.08,1.85-13.66,5.59-19.75c3.72-6.09,8.99-11.18,15.8-15.27
			c4.07-2.39,8.46-4.2,13.15-5.45c4.7-1.24,9.53-1.86,14.52-1.86c5.2,0,10.14,0.61,14.8,1.83c4.67,1.22,9.01,3.04,13.03,5.48
			c6.86,4.09,12.16,9.19,15.89,15.27c3.73,6.09,5.59,12.68,5.59,19.75c0,7.08-1.85,13.67-5.59,19.75
			c-3.73,6.09-9.03,11.18-15.89,15.28c-4.13,2.48-8.53,4.36-13.2,5.62c-4.66,1.26-9.54,1.89-14.64,1.89
			c-4.99,0-9.83-0.63-14.52-1.89c-4.7-1.26-9.08-3.09-13.15-5.48c-6.81-4.09-12.08-9.21-15.8-15.34
			C1033.68,216.74,1031.82,210.13,1031.82,203.05z M1045.81,203.05c0,12,3.2,21.55,9.58,28.64c6.38,7.11,14.88,10.66,25.5,10.66
			c10.67,0,19.19-3.55,25.54-10.66c6.36-7.1,9.54-16.64,9.54-28.64c0-12-3.18-21.51-9.54-28.54c-6.35-7.03-14.86-10.55-25.54-10.55
			c-10.67,0-19.19,3.51-25.54,10.55C1048.99,181.54,1045.81,191.05,1045.81,203.05z"/>
	</g>
</g>
</svg>
