<?xml version="1.0" encoding="utf-8"?>
<!-- Generator: Adobe Illustrator 24.0.0, SVG Export Plug-In . SVG Version: 6.00 Build 0)  -->
<svg version="1.1" id="Capa_1" xmlns="http://www.w3.org/2000/svg" xmlns:xlink="http://www.w3.org/1999/xlink" x="0px" y="0px"
	 viewBox="0 0 1190.3 383" style="enable-background:new 0 0 1190.3 383;" xml:space="preserve">
<style type="text/css">
	.st0{fill:#FFFFFF;}
</style>
<g>
	<path class="st0" d="M456.8,306.2c0-5.6-1.7-10.2-5-13.6c-3.3-3.3-7.9-5-13.8-5h-88.1v-80.4h70.8c3,0,5.9-1.8,5.9-5.3v-16.5h-2.9
		h-73.8V117h83.9c6,0,10.5-1.7,13.4-5c2.9-3.4,4.4-7.9,4.4-13.5c0-0.8-0.3-3.4-0.3-3.4c0-1.8-1.3-3.2-2.9-3.2H327.9
		c-1.6,0-2.9,1.4-2.9,3.2v214.5c0,1.8,1.3,3.3,2.9,3.3h125.7C457.4,312.8,456.8,307.1,456.8,306.2"/>
	<path class="st0" d="M598.3,92.1h159.9v12.1c0,14.8-15.7,14.6-15.7,14.6h-51.9v193.9h-24.4V118.8h-67.9L598.3,92.1L598.3,92.1z"/>
	<path class="st0" d="M1048.9,133.9c2.8-12.7,7.8-22.9,14.9-30.6s16.9-11.4,29.3-11.2h19.2l57.8,220.6h-26.7l-11.1-43.8h-90.8
		l-11,43.8h-28.9L1048.9,133.9z M1048,243.2h78l-32-125.9c-5.6,0-10,2.4-13.4,7.2c-3.4,4.8-6,10.7-7.7,17.7L1048,243.2z"/>
	<path class="st0" d="M61.4,242.5l0.3,70.4H36.9L36.6,91.8h68.7c21.9,0,38.1,6,48.7,18s15.9,30.3,15.9,55s-5.3,43.8-15.9,57.3
		c-10.6,13.6-26.8,20.4-48.7,20.4H61.4L61.4,242.5z M108.3,217.3c13.5,0,23.4-4.6,29.6-13.9c6.3-9.1,9.4-21.8,9.4-37.7
		s-3.1-27.7-9.4-35.2c-6.3-7.5-16.1-11.3-29.6-13H61.4v99.7L108.3,217.3L108.3,217.3z"/>
	<path class="st0" d="M289.6,230.4c3-2.4,5.8-5.2,8.2-8.3c10.6-13.6,15.9-32.7,15.9-57.3s-5.3-43-15.9-55s-26.8-18-48.7-18h-68.7
		l0.3,221.1h24.8l-0.3-70.4h43.9c1.7,0,3.4-0.1,5-0.2c9.6,0.9,35.8,6.4,35.8,39.8v30.8h23.7v-30.8
		C313.7,254.8,301.9,239.2,289.6,230.4z M205.3,217.3v-99.7h46.9c13.5,1.7,23.4,5.4,29.6,13c6.3,7.5,9.4,19.3,9.4,35.2
		s-3.1,28.6-9.4,37.7c-6.3,9.3-16.1,13.9-29.6,13.9L205.3,217.3L205.3,217.3L205.3,217.3z"/>
	<path class="st0" d="M791.3,105.4c0-13.9-12-13.3-12-13.3h-12.7V131l0,0v168.3c0,13.9,12,13.4,12,13.4h12.7l-0.1-38.9h0.1V105.4z"
		/>
	<path class="st0" d="M991.7,105.4c0-13.9-12-13.3-12-13.3H967l0.1,38.9H967v168.3c0,13.9,12,13.4,12,13.4h12.7l-0.1-38.9h0.1V105.4
		L991.7,105.4z"/>
	<path class="st0" d="M950.6,207.1L950.6,207.1l-61.9-0.1c-12.3,0-11.9,13.5-11.9,13.5v11.1h52c-0.2,3.2-0.5-4.4-0.8-1.6
		c-1.1,10.2-4.1,29.7-7.5,36.3c-3.4,6.6-8.9,12.7-15,15.8c-2.3,1.2-4.8,2.1-7.7,2.7c-2.4,0.3-4.9,0.5-7.3,0.7c-5,0.5-9.3,0.7-13,0.8
		c-1.5,0-3.3,0-5.2-0.1c-8.2-0.3-15.1-1.5-20.3-4.2c-6.1-3.1-11.5-9.2-14.9-15.8c-3.4-6.6-6.4-15.4-7.5-25.6
		c-1.1-10.2-1.7-23.8-1.7-38c0-14.4,0.6-28.1,1.8-38.6c1.2-10.4,4.2-20.2,7.6-26.7c3.4-6.5,8.8-11.3,14.8-14.4s14.1-4.7,23.7-4.7
		c4.4,0,9.4,0.3,15.1,0.9c2.1,0.2,4.1,0.5,6.2,0.7c3.2,0.8,6,1.8,8.5,3.1c6,3.1,11.4,7.9,14.8,14.4c3.4,6.5,6.5,16.3,7.7,26.7
		c0.1,0.6,0.6,5.6,0.7,11.8l26.1,0.1c-0.5-8.1-1.3-15.6-2.3-22.5c-2.1-13.9-5.9-25.5-11.3-34.7c-5.4-9.2-12.7-16-21.7-20.6
		c-9.1-4.5-26.5-6.8-41.9-6.8c-15.2,0-30.3,2.3-39.4,6.8c-9,4.6-16.3,11.4-21.7,20.6s-9.2,20.8-11.3,34.7c-2.1,14-3.1,30.3-3.1,49.1
		c0,17.9,0.9,33.9,2.9,47.7c1.9,13.8,5.5,25.4,10.8,34.7c5.2,9.3,12.4,16.3,21.5,21.1c0.3,0.2,0.6,0.3,1,0.5
		c9.3,4.3,26.6,6.4,40,6.5c0.3,0,0.5,0,0.6,0s0.3,0,0.6,0c13.4-0.1,30.7-2.2,40-6.5c0.3-0.1,0.7-0.3,1-0.5
		c9.2-4.8,16.3-11.8,21.6-21.1c5.3-9.3,8.8-20.8,10.7-34.7c1.9-13.5,2.8-25.9,2.9-43.4L950.6,207.1L950.6,207.1L950.6,207.1z"/>
	<path class="st0" d="M592.1,216.2c-2.5-3.9-5.6-7.2-9.2-9.9c-3.6-2.6-7.5-5.3-11.8-7.3c-13.6-4.3-30-7.2-30-7.2l-28-3.4
		c-11-1.3-19.1-4.4-24-10.8c-5-6.3-9-15.1-9-27.2c0-11.7,4.3-20,9.7-25.1c5.5-5,13.7-7.5,24.8-8.3h0.5h20.4h0.5
		c11.1,0.8,19.3,3.4,24.8,8.3c3.9,3.5,7.1,8.8,8.7,15.6h25.1c-1-16.5-6.1-28.6-15.5-36.3C568.6,96,554.2,91.7,536,91.7h-0.4h-20.4
		h-0.4c-18.3,0-32.7,4.3-43.2,12.9c-10.4,8.6-15.6,22.6-15.6,42.2c0,7.4,0.5,13.8,1.5,19.4c1,5.4,2.7,10.3,4.6,14.4
		c4.4,9.6,9.4,16.3,22.5,23.7c14.6,8.3,43.2,9.2,53.6,10.5c10.5,1.3,20.4,4.7,23.9,7.1c3.5,2.4,6.4,5.9,8.7,10.4s5,10.5,5,17.9
		c0,13.8-4.6,23.4-10.8,28.7c-6.3,5.3-14.9,8-26,8.9h-3.5h-20.4h-3.5c-11.1-0.9-19.7-3.5-25.9-8.9c-1.7-1.5-3.3-3.3-4.7-5.4h-28
		c0.5,2,1.1,4,1.7,5.9c2.9,7.9,6.9,14.4,12.3,19.2c5.4,5,11.8,8.5,19.4,10.7c7.5,2.2,15.9,3.4,25.1,3.4h3.5h20.4h3.5
		c9.2,0,17.7-1.2,25.1-3.4c7.6-2.2,14-5.8,19.4-10.7c5.3-4.9,9.5-11.3,12.3-19.2c2.8-8,4.2-17.6,4.2-28.8c0-7.9-0.7-14.6-2.1-20.3
		C596.6,224.9,594.7,220.1,592.1,216.2z"/>
</g>
<g>
	<path class="st0" d="M40.1,54.6c1.4-0.3,3.5-0.5,5.4-0.5c3,0,5,0.6,6.3,1.8c1.1,1,1.7,2.5,1.7,4.2c0,2.9-1.8,4.8-4.1,5.6v0.1
		c1.7,0.6,2.7,2.1,3.2,4.4c0.7,3.1,1.2,5.2,1.7,6h-2.9c-0.4-0.6-0.8-2.5-1.5-5.2c-0.6-3-1.8-4.2-4.4-4.3h-2.7v9.5H40L40.1,54.6
		L40.1,54.6z M42.9,64.5h2.9c3,0,4.9-1.7,4.9-4.2c0-2.8-2-4.1-5-4.1c-1.4,0-2.3,0.1-2.8,0.3C42.9,56.5,42.9,64.5,42.9,64.5z"/>
	<path class="st0" d="M59.2,68.8c0.1,3.9,2.5,5.5,5.4,5.5c2,0,3.3-0.4,4.3-0.8l0.5,2c-1,0.5-2.7,1-5.2,1c-4.8,0-7.7-3.2-7.7-7.9
		s2.8-8.5,7.4-8.5c5.1,0,6.5,4.5,6.5,7.4c0,0.6-0.1,1-0.1,1.3H59.2z M67.6,66.8c0-1.8-0.7-4.6-4-4.6c-2.9,0-4.2,2.7-4.4,4.6H67.6z"
		/>
	<path class="st0" d="M75,60.5l3.1,8.8c0.5,1.4,0.9,2.7,1.3,4h0.1c0.4-1.3,0.8-2.6,1.3-4l3.1-8.8h3l-6.2,15.7H78l-6-15.7
		C72,60.5,75,60.5,75,60.5z"/>
	<path class="st0" d="M92.6,56c0,1-0.7,1.8-1.8,1.8c-1,0-1.7-0.8-1.7-1.8s0.7-1.8,1.8-1.8C92,54.3,92.6,55,92.6,56z M89.5,76.2V60.5
		h2.9v15.7H89.5z"/>
	<path class="st0" d="M96.7,73.2c0.8,0.6,2.3,1.1,3.8,1.1c2.1,0,3.1-1,3.1-2.3c0-1.4-0.8-2.1-2.9-2.9c-2.8-1-4.2-2.6-4.2-4.4
		c0-2.5,2-4.6,5.4-4.6c1.6,0,3,0.5,3.9,1l-0.7,2.1c-0.6-0.4-1.8-0.9-3.2-0.9c-1.7,0-2.6,1-2.6,2.1c0,1.3,0.9,1.9,3,2.7
		c2.7,1,4.1,2.4,4.1,4.7c0,2.8-2.1,4.7-5.9,4.7c-1.7,0-3.3-0.4-4.4-1.1L96.7,73.2z"/>
	<path class="st0" d="M113.3,55.9v4.5h4.1v2.2h-4.1v8.5c0,1.9,0.6,3.1,2.1,3.1c0.7,0,1.3-0.1,1.7-0.2l0.1,2.1
		c-0.6,0.2-1.4,0.4-2.5,0.4c-1.3,0-2.4-0.4-3.1-1.2c-0.8-0.8-1.1-2.2-1.1-4.1v-8.6h-2.4v-2.2h2.4v-3.8L113.3,55.9z"/>
	<path class="st0" d="M129.3,76.2l-0.2-2H129c-0.9,1.2-2.6,2.3-4.8,2.3c-3.2,0-4.8-2.2-4.8-4.5c0-3.8,3.4-5.9,9.4-5.8v-0.3
		c0-1.3-0.4-3.6-3.6-3.6c-1.5,0-3,0.5-4.1,1.2l-0.6-1.9c1.3-0.8,3.2-1.4,5.2-1.4c4.8,0,6,3.3,6,6.4v5.9c0,1.4,0.1,2.7,0.3,3.8
		L129.3,76.2L129.3,76.2z M128.9,68.1c-3.1-0.1-6.7,0.5-6.7,3.5c0,1.9,1.2,2.7,2.7,2.7c2,0,3.3-1.3,3.8-2.6c0.1-0.3,0.2-0.6,0.2-0.9
		V68.1z"/>
	<path class="st0" d="M144.8,68.8c0.1,3.9,2.5,5.5,5.4,5.5c2,0,3.3-0.4,4.3-0.8l0.5,2c-1,0.5-2.7,1-5.2,1c-4.8,0-7.7-3.2-7.7-7.9
		s2.8-8.5,7.4-8.5c5.1,0,6.5,4.5,6.5,7.4c0,0.6-0.1,1-0.1,1.3H144.8z M153.1,66.8c0-1.8-0.7-4.6-4-4.6c-2.9,0-4.2,2.7-4.4,4.6H153.1
		z"/>
	<path class="st0" d="M160.7,60.5l2.2,3.4c0.6,0.9,1.1,1.7,1.6,2.6h0.1c0.5-0.9,1-1.8,1.6-2.6l2.2-3.3h3.1l-5.4,7.6l5.5,8.1h-3.2
		l-2.3-3.5c-0.6-0.9-1.1-1.8-1.7-2.7h-0.1c-0.5,0.9-1.1,1.8-1.7,2.7l-2.3,3.5h-3.1l5.6-8l-5.3-7.7h3.2V60.5z"/>
	<path class="st0" d="M185.1,75.6c-0.7,0.4-2.4,0.9-4.5,0.9c-4.7,0-7.8-3.2-7.8-8s3.3-8.3,8.4-8.3c1.7,0,3.2,0.4,4,0.8l-0.6,2.2
		c-0.7-0.4-1.8-0.7-3.3-0.7c-3.6,0-5.5,2.7-5.5,5.9c0,3.6,2.3,5.9,5.5,5.9c1.6,0,2.7-0.4,3.5-0.8L185.1,75.6z"/>
	<path class="st0" d="M188.4,53.1h2.9v23h-2.9V53.1z"/>
	<path class="st0" d="M209.2,71.9c0,1.6,0,3.1,0.1,4.3h-2.5l-0.2-2.6h-0.1c-0.7,1.3-2.4,2.9-5.2,2.9c-2.5,0-5.4-1.4-5.4-6.9v-9.2
		h2.9v8.7c0,3,0.9,5,3.5,5c1.9,0,3.2-1.3,3.8-2.6c0.2-0.4,0.3-0.9,0.3-1.5v-9.6h2.9v11.5H209.2z"/>
	<path class="st0" d="M213.6,73.2c0.8,0.6,2.3,1.1,3.8,1.1c2.1,0,3.1-1,3.1-2.3c0-1.4-0.8-2.1-2.9-2.9c-2.8-1-4.2-2.6-4.2-4.4
		c0-2.5,2-4.6,5.4-4.6c1.6,0,3,0.5,3.9,1l-0.7,2.1c-0.6-0.4-1.8-0.9-3.2-0.9c-1.7,0-2.6,1-2.6,2.1c0,1.3,0.9,1.9,3,2.7
		c2.7,1,4.1,2.4,4.1,4.7c0,2.8-2.1,4.7-5.9,4.7c-1.7,0-3.3-0.4-4.4-1.1L213.6,73.2z"/>
	<path class="st0" d="M230,56c0,1-0.7,1.8-1.8,1.8c-1,0-1.7-0.8-1.7-1.8s0.7-1.8,1.8-1.8C229.3,54.3,230,55,230,56z M226.8,76.2
		V60.5h2.9v15.7H226.8z"/>
	<path class="st0" d="M235.5,60.5l3.1,8.8c0.5,1.4,0.9,2.7,1.3,4h0.1c0.4-1.3,0.8-2.6,1.3-4l3.1-8.8h3l-6.2,15.7h-2.7l-6-15.7
		C232.5,60.5,235.5,60.5,235.5,60.5z"/>
	<path class="st0" d="M258.6,76.2l-0.2-2h-0.1c-0.9,1.2-2.6,2.3-4.8,2.3c-3.2,0-4.8-2.2-4.8-4.5c0-3.8,3.4-5.9,9.4-5.8v-0.3
		c0-1.3-0.4-3.6-3.6-3.6c-1.5,0-3,0.5-4.1,1.2l-0.6-1.9c1.3-0.8,3.2-1.4,5.2-1.4c4.8,0,6,3.3,6,6.4v5.9c0,1.4,0.1,2.7,0.3,3.8
		L258.6,76.2L258.6,76.2z M258.1,68.1c-3.1-0.1-6.7,0.5-6.7,3.5c0,1.9,1.2,2.7,2.7,2.7c2,0,3.3-1.3,3.8-2.6c0.1-0.3,0.2-0.6,0.2-0.9
		V68.1z"/>
	<path class="st0" d="M272.4,65.6c0-2-0.1-3.6-0.1-5.1h2.6l0.1,2.7h0.1c1.2-1.9,3-3.1,5.6-3.1c3.8,0,6.7,3.2,6.7,8
		c0,5.6-3.4,8.4-7.1,8.4c-2.1,0-3.9-0.9-4.8-2.5h-0.1v8.5h-2.8V65.6H272.4z M275.2,69.8c0,0.4,0.1,0.8,0.1,1.2
		c0.5,2,2.2,3.3,4.3,3.3c3,0,4.8-2.5,4.8-6.1c0-3.1-1.7-5.8-4.7-5.8c-1.9,0-3.8,1.4-4.3,3.5c-0.1,0.4-0.2,0.8-0.2,1.2L275.2,69.8
		L275.2,69.8z"/>
	<path class="st0" d="M299.6,76.2l-0.2-2h-0.1c-0.9,1.2-2.6,2.3-4.8,2.3c-3.2,0-4.8-2.2-4.8-4.5c0-3.8,3.4-5.9,9.4-5.8v-0.3
		c0-1.3-0.4-3.6-3.6-3.6c-1.5,0-3,0.5-4.1,1.2l-0.6-1.9c1.3-0.8,3.2-1.4,5.2-1.4c4.8,0,6,3.3,6,6.4v5.9c0,1.4,0.1,2.7,0.3,3.8
		L299.6,76.2L299.6,76.2z M299.1,68.1c-3.1-0.1-6.7,0.5-6.7,3.5c0,1.9,1.2,2.7,2.7,2.7c2,0,3.3-1.3,3.8-2.6c0.1-0.3,0.2-0.6,0.2-0.9
		V68.1z"/>
	<path class="st0" d="M306.5,65.4c0-1.9,0-3.4-0.1-4.9h2.5l0.1,3.1h0.1c0.7-2.1,2.4-3.4,4.3-3.4c0.3,0,0.6,0,0.8,0.1V63
		c-0.3-0.1-0.6-0.1-1-0.1c-2,0-3.4,1.5-3.8,3.7c-0.1,0.4-0.1,0.8-0.1,1.3v8.4h-2.8V65.4z"/>
	<path class="st0" d="M325.6,76.2l-0.2-2h-0.1c-0.9,1.2-2.6,2.3-4.8,2.3c-3.2,0-4.8-2.2-4.8-4.5c0-3.8,3.4-5.9,9.4-5.8v-0.3
		c0-1.3-0.4-3.6-3.6-3.6c-1.5,0-3,0.5-4.1,1.2l-0.6-1.9c1.3-0.8,3.2-1.4,5.2-1.4c4.8,0,6,3.3,6,6.4v5.9c0,1.4,0.1,2.7,0.3,3.8
		L325.6,76.2L325.6,76.2z M325.2,68.1c-3.1-0.1-6.7,0.5-6.7,3.5c0,1.9,1.2,2.7,2.7,2.7c2,0,3.3-1.3,3.8-2.6c0.1-0.3,0.2-0.6,0.2-0.9
		V68.1z"/>
	<path class="st0" d="M350.7,75.6c-0.7,0.4-2.4,0.9-4.5,0.9c-4.7,0-7.8-3.2-7.8-8s3.3-8.3,8.4-8.3c1.7,0,3.2,0.4,4,0.8l-0.6,2.2
		c-0.7-0.4-1.8-0.7-3.3-0.7c-3.6,0-5.5,2.7-5.5,5.9c0,3.6,2.3,5.9,5.5,5.9c1.6,0,2.7-0.4,3.5-0.8L350.7,75.6z"/>
	<path class="st0" d="M354,53.1h2.9v23H354V53.1z"/>
	<path class="st0" d="M364.8,56c0,1-0.7,1.8-1.8,1.8c-1,0-1.7-0.8-1.7-1.8s0.7-1.8,1.8-1.8C364.2,54.3,364.8,55,364.8,56z
		 M361.7,76.2V60.5h2.9v15.7H361.7z"/>
	<path class="st0" d="M370.9,68.8c0.1,3.9,2.5,5.5,5.4,5.5c2,0,3.3-0.4,4.3-0.8l0.5,2c-1,0.5-2.7,1-5.2,1c-4.8,0-7.7-3.2-7.7-7.9
		s2.8-8.5,7.4-8.5c5.1,0,6.5,4.5,6.5,7.4c0,0.6-0.1,1-0.1,1.3H370.9z M379.2,66.8c0-1.8-0.7-4.6-4-4.6c-2.9,0-4.2,2.7-4.4,4.6H379.2
		z"/>
	<path class="st0" d="M385.5,64.7c0-1.6,0-3-0.1-4.3h2.5l0.2,2.6h0.1c0.8-1.5,2.6-3,5.2-3c2.2,0,5.5,1.3,5.5,6.7v9.4H396V67
		c0-2.5-0.9-4.6-3.6-4.6c-1.9,0-3.3,1.3-3.8,2.9c-0.1,0.4-0.2,0.8-0.2,1.3V76h-2.9V64.7z"/>
	<path class="st0" d="M406.8,55.9v4.5h4.1v2.2h-4.1v8.5c0,1.9,0.6,3.1,2.1,3.1c0.7,0,1.3-0.1,1.7-0.2l0.1,2.1
		c-0.6,0.2-1.4,0.4-2.5,0.4c-1.3,0-2.4-0.4-3.1-1.2c-0.8-0.8-1.1-2.2-1.1-4.1v-8.6h-2.4v-2.2h2.4v-3.8L406.8,55.9z"/>
	<path class="st0" d="M415.5,68.8c0.1,3.9,2.5,5.5,5.4,5.5c2,0,3.3-0.4,4.3-0.8l0.5,2c-1,0.5-2.7,1-5.2,1c-4.8,0-7.7-3.2-7.7-7.9
		s2.8-8.5,7.4-8.5c5.1,0,6.5,4.5,6.5,7.4c0,0.6-0.1,1-0.1,1.3H415.5z M423.9,66.8c0-1.8-0.7-4.6-4-4.6c-2.9,0-4.2,2.7-4.4,4.6H423.9
		z"/>
	<path class="st0" d="M429.8,73.2c0.8,0.6,2.3,1.1,3.8,1.1c2.1,0,3.1-1,3.1-2.3c0-1.4-0.8-2.1-2.9-2.9c-2.8-1-4.2-2.6-4.2-4.4
		c0-2.5,2-4.6,5.4-4.6c1.6,0,3,0.5,3.9,1l-0.7,2.1c-0.6-0.4-1.8-0.9-3.2-0.9c-1.7,0-2.6,1-2.6,2.1c0,1.3,0.9,1.9,3,2.7
		c2.7,1,4.1,2.4,4.1,4.7c0,2.8-2.1,4.7-5.9,4.7c-1.7,0-3.3-0.4-4.4-1.1L429.8,73.2z"/>
	<path class="st0" d="M451.1,72.7c1.3,0.8,3.1,1.4,5.1,1.4c2.9,0,4.6-1.5,4.6-3.7c0-2-1.2-3.2-4.1-4.3c-3.6-1.3-5.8-3.1-5.8-6.2
		c0-3.4,2.8-5.9,7.1-5.9c2.2,0,3.9,0.5,4.8,1.1l-0.8,2.3c-0.7-0.4-2.2-1-4.2-1c-3,0-4.1,1.8-4.1,3.3c0,2,1.3,3.1,4.3,4.2
		c3.7,1.4,5.6,3.2,5.6,6.4c0,3.4-2.5,6.3-7.7,6.3c-2.1,0-4.4-0.6-5.6-1.4L451.1,72.7z"/>
	<path class="st0" d="M478.8,75.6c-0.7,0.4-2.4,0.9-4.5,0.9c-4.7,0-7.8-3.2-7.8-8s3.3-8.3,8.4-8.3c1.7,0,3.2,0.4,4,0.8l-0.6,2.2
		c-0.7-0.4-1.8-0.7-3.3-0.7c-3.6,0-5.5,2.7-5.5,5.9c0,3.6,2.3,5.9,5.5,5.9c1.6,0,2.7-0.4,3.5-0.8L478.8,75.6z"/>
	<path class="st0" d="M496.1,68.2c0,5.8-4,8.3-7.8,8.3c-4.3,0-7.5-3.1-7.5-8.1c0-5.3,3.4-8.3,7.8-8.3
		C493.1,60.1,496.1,63.4,496.1,68.2z M483.7,68.3c0,3.4,2,6,4.8,6c2.7,0,4.8-2.6,4.8-6.1c0-2.7-1.3-6-4.7-6
		C485.1,62.2,483.7,65.4,483.7,68.3z"/>
	<path class="st0" d="M503.2,55.9v4.5h4.1v2.2h-4.1v8.5c0,1.9,0.6,3.1,2.1,3.1c0.7,0,1.3-0.1,1.7-0.2l0.1,2.1
		c-0.6,0.2-1.4,0.4-2.5,0.4c-1.3,0-2.4-0.4-3.1-1.2c-0.8-0.8-1.1-2.2-1.1-4.1v-8.6H498v-2.2h2.4v-3.8L503.2,55.9z"/>
	<path class="st0" d="M513.7,56c0,1-0.7,1.8-1.8,1.8c-1,0-1.7-0.8-1.7-1.8s0.7-1.8,1.8-1.8C513,54.3,513.7,55,513.7,56z M510.5,76.2
		V60.5h2.9v15.7H510.5z"/>
	<path class="st0" d="M526.8,76.2l-0.2-2h-0.1c-0.9,1.2-2.6,2.3-4.8,2.3c-3.2,0-4.8-2.2-4.8-4.5c0-3.8,3.4-5.9,9.4-5.8v-0.3
		c0-1.3-0.4-3.6-3.6-3.6c-1.5,0-3,0.5-4.1,1.2l-0.6-1.9c1.3-0.8,3.2-1.4,5.2-1.4c4.8,0,6,3.3,6,6.4v5.9c0,1.4,0.1,2.7,0.3,3.8
		L526.8,76.2L526.8,76.2z M526.3,68.1c-3.1-0.1-6.7,0.5-6.7,3.5c0,1.9,1.2,2.7,2.7,2.7c2,0,3.3-1.3,3.8-2.6c0.1-0.3,0.2-0.6,0.2-0.9
		V68.1z"/>
	<path class="st0" d="M533.6,76.2c0.1-1.1,0.1-2.7,0.1-4.1v-19h2.8V63h0.1c1-1.8,2.8-2.9,5.4-2.9c3.9,0,6.7,3.2,6.6,8
		c0,5.6-3.5,8.4-7,8.4c-2.3,0-4.1-0.9-5.3-3h-0.1l-0.1,2.6L533.6,76.2L533.6,76.2z M536.5,69.9c0,0.4,0.1,0.7,0.1,1
		c0.6,2,2.2,3.3,4.3,3.3c3,0,4.8-2.4,4.8-6c0-3.1-1.6-5.8-4.7-5.8c-1.9,0-3.8,1.3-4.3,3.5c-0.1,0.3-0.2,0.7-0.2,1.2L536.5,69.9
		L536.5,69.9z"/>
	<path class="st0" d="M560.9,76.2l-0.2-2h-0.1c-0.9,1.2-2.6,2.3-4.8,2.3c-3.2,0-4.8-2.2-4.8-4.5c0-3.8,3.4-5.9,9.4-5.8v-0.3
		c0-1.3-0.4-3.6-3.6-3.6c-1.5,0-3,0.5-4.1,1.2l-0.6-1.9c1.3-0.8,3.2-1.4,5.2-1.4c4.8,0,6,3.3,6,6.4v5.9c0,1.4,0.1,2.7,0.3,3.8
		L560.9,76.2L560.9,76.2z M560.4,68.1c-3.1-0.1-6.7,0.5-6.7,3.5c0,1.9,1.2,2.7,2.7,2.7c2,0,3.3-1.3,3.8-2.6c0.1-0.3,0.2-0.6,0.2-0.9
		V68.1z"/>
	<path class="st0" d="M567.8,64.7c0-1.6,0-3-0.1-4.3h2.5l0.2,2.6h0.1c0.8-1.5,2.6-3,5.2-3c2.2,0,5.5,1.3,5.5,6.7v9.4h-2.9V67
		c0-2.5-0.9-4.6-3.6-4.6c-1.9,0-3.3,1.3-3.8,2.9c-0.1,0.4-0.2,0.8-0.2,1.3V76h-2.9V64.7z"/>
	<path class="st0" d="M588.6,67.7L588.6,67.7c0.5-0.6,1-1.2,1.5-1.8l4.6-5.4h3.4L592,67l6.9,9.3h-3.5l-5.4-7.5l-1.5,1.6v5.9h-2.8
		v-23h2.8L588.6,67.7L588.6,67.7z"/>
</g>
</svg>
